# xmcd
#
# Track frame offsets:
# 150
# 17915
# 33940
# 49086
# 67197
# 81906
# 96044
# 113402
# 129074
# 143691
# 160326
# 175476
# 192882
# 207393
# 222907
# 235486
# 247883
# 261280
# 274396
# 284861
# 296723
# 306016
# 314840
# 329693
# 343508
#
# Disc length: 4750 seconds
#
#
# Revision: 0
# Processed by: cddbd v1.5.2PL0 Copyright (c) Steve Scherf et al.
# Submitted via: FreeRIP 2.52 
#
DISCID=8b128c19
DTITLE=hugo pena and gabriel - as melhores
DYEAR=1900
DGENRE=Country
TTITLE0=hugo pena e gabriel
TTITLE1=hugo pena e gabriel
TTITLE2=hugo pena e gabriel
TTITLE3=hugo pena e gabriel
TTITLE4=hugo pena e gabriel
TTITLE5=hugo pena e gabriel
TTITLE6=hugo pena e gabriel
TTITLE7=hugo pena e gabriel
TTITLE8=hugo pena e gabriel
TTITLE9=hugo pena e gabriel
TTITLE10=hugo pena e gabriel
TTITLE11=hugo pena e gabriel
TTITLE12=hugo pena e gabriel
TTITLE13=hugo pena e gabriel
TTITLE14=hugo pena e gabriel
TTITLE15=hugo pena e gabriel
TTITLE16=hugo pena e gabriel
TTITLE17=hugo pena e gabriel
TTITLE18=hugo pena e gabriel
TTITLE19=hugo pena e gabriel
TTITLE20=hugo pena e gabriel
TTITLE21=hugo pena e gabriel
TTITLE22=hugo pena e gabriel
TTITLE23=hugo pena e gabriel
TTITLE24=hugo pena e gabriel
EXTD=as melhores
EXTT0=
EXTT1=
EXTT2=
EXTT3=
EXTT4=
EXTT5=
EXTT6=
EXTT7=
EXTT8=
EXTT9=
EXTT10=
EXTT11=
EXTT12=
EXTT13=
EXTT14=
EXTT15=
EXTT16=
EXTT17=
EXTT18=
EXTT19=
EXTT20=
EXTT21=
EXTT22=
EXTT23=
EXTT24=
PLAYORDER=
